<?xml version="1.0" encoding="utf-8"?>
<!-- Generator: Adobe Illustrator 22.1.0, SVG Export Plug-In . SVG Version: 6.00 Build 0)  -->
<svg version="1.1" id="Layer_1" xmlns="http://www.w3.org/2000/svg" xmlns:xlink="http://www.w3.org/1999/xlink" x="0px" y="0px"
	 viewBox="0 0 221.6 221.6" style="enable-background:new 0 0 221.6 221.6;" xml:space="preserve">
<style type="text/css">
	.st0{fill:#EE2624;}
	.st1{fill:#FFFFFF;}
	.st2{opacity:0.25;fill:#FFFFFF;enable-background:new    ;}
</style>
<path class="st0" d="M197.7,221.6H23.9C10.7,221.6,0,210.9,0,197.7V23.9C0,10.7,10.7,0,23.9,0h173.9c13.1,0,23.9,10.7,23.9,23.9
	v173.9C221.6,210.9,210.9,221.6,197.7,221.6z"/>
<path class="st1" d="M143.6,176.7c-6.7,0-12-5.4-12-12c0-6.6,5.4-12,12-12c6.6,0,12,5.4,12,12C155.7,171.4,150.3,176.7,143.6,176.7z
	"/>
<path class="st1" d="M44.5,95.1c0,2.4,0.9,4.4,2.7,6c1.8,1.5,4.4,2.3,7.8,2.3h6.2v59.9c0,4.4,1.1,7.9,3.2,10.3
	c2.2,2.4,4.8,3.5,8,3.5c3.4,0,6.1-1.1,8.2-3.5c2.2-2.4,3.2-5.7,3.2-10.3v-59.7C72,98.8,60.4,93.7,49.1,88.1
	C46.1,89.3,44.5,91.6,44.5,95.1z"/>
<path class="st1" d="M154.5,108.4c-4.7,4.7-4.7,12.3,0,17c4.7,4.7,12.3,4.7,17,0c4.7-4.7,4.7-12.3,0-17
	C166.8,103.8,159.2,103.8,154.5,108.4z"/>
<path class="st1" d="M89.4,103.3c4,0,7.2-0.5,9.5-1.5s3.4-3.4,3.4-7c0-5.2-4.3-7.8-12.9-7.8h-5.5v-5.4c0-4.4,0.6-7.9,1.7-10.3
	c1.1-2.4,3.8-3.6,7.9-3.6c1.5,0,3.3,0.1,5.4,0.5c2.2,0.4,3.7,0.5,4.6,0.5c1.9,0,3.5-0.7,4.9-2.2c1.4-1.5,2.1-3.3,2.1-5.4
	c0-6.5-6.6-9.7-19.8-9.7c-7.5,0-13.3,0.9-17.6,2.9c-4.3,1.9-7.3,4.9-9.1,9.1s-2.7,9.8-2.7,16.8v6.8h-5.4c-2.7,0-4.9,0.4-6.7,1.1
	c11.3,5.6,22.9,10.8,34.7,15.4v-0.1L89.4,103.3L89.4,103.3z"/>
<path class="st2" d="M89.4,103.3c4,0,7.2-0.5,9.5-1.5s3.4-3.4,3.4-7c0-5.2-4.3-7.8-12.9-7.8h-5.5v-5.4c0-4.4,0.6-7.9,1.7-10.3
	c1.1-2.4,3.8-3.6,7.9-3.6c1.5,0,3.3,0.1,5.4,0.5c2.2,0.4,3.7,0.5,4.6,0.5c1.9,0,3.5-0.7,4.9-2.2c1.4-1.5,2.1-3.3,2.1-5.4
	c0-6.5-6.6-9.7-19.8-9.7c-7.5,0-13.3,0.9-17.6,2.9c-4.3,1.9-7.3,4.9-9.1,9.1s-2.7,9.8-2.7,16.8v6.8h-5.4c-2.7,0-4.9,0.4-6.7,1.1
	c11.3,5.6,22.9,10.8,34.7,15.4v-0.1L89.4,103.3L89.4,103.3z"/>
<path class="st1" d="M142.9,57.4c-6.6,0-12,5.4-12,12c0,6.6,5.4,12,12,12c6.6,0,12-5.4,12-12C154.9,62.7,149.6,57.4,142.9,57.4z"/>
<path class="st2" d="M142.9,57.4c-6.6,0-12,5.4-12,12c0,6.6,5.4,12,12,12c6.6,0,12-5.4,12-12C154.9,62.7,149.6,57.4,142.9,57.4z"/>
</svg>